# xmcd CD database file
#
# Track frame offsets:
#	150
#	19237
#	32887
#	44400
#	56228
#	67643
#	81783
#	92332
#	104257
#	118760
#	131466
#	146153
#	161073
#	172873
#	184627
#	198250
#	210221
#	224243
#	239181
#	250947
#
# Disc length: 3470
# Revision: 2
# Processed by: cddbd v1.5.2PL0 Copyright (c) Steve Scherf et al.
# Submitted via: cddb.el 1.0 (Emacs 27.0.50)
#
DISCID=200d8c14
DTITLE=Bobbie Gentry - The Girl From Chickasaw County (6): Fancy
DYEAR=2018
DGENRE=Country
TTITLE0=Fancy
TTITLE1=Delta Man
TTITLE2=Something in the Way He Moves
TTITLE3=Find 'em, Fool 'em and Forget 'em
TTITLE4=He Made a Woman Out of Me
TTITLE5=Raindrops Keep Fallin' on My Head
TTITLE6=If You Gotta Make a Fool of Somebody
TTITLE7=Rainmaker
TTITLE8=Wedding Bell Blues
TTITLE9=In the Ghetto
TTITLE10=Fancy (Mono Radio Edit)
TTITLE11=Apartment 21
TTITLE12=Away in a Manger
TTITLE13=Scarlet Ribbons
TTITLE14=Circle Round the Sun
TTITLE15=Raindrops Keep Fallin' on My Head (Alternate Take)
TTITLE16=Wedding Bell Blues (Alternate Take)
TTITLE17=Apartment 21 (Without Strings)
TTITLE18=Scarlet Ribbons (Alternate Take)
TTITLE19=If You Gotta Make a Fool of Somebody (Live on Top of the Pops 1970)
EXTD=
EXTT0=
EXTT1=
EXTT2=
EXTT3=
EXTT4=
EXTT5=
EXTT6=
EXTT7=
EXTT8=
EXTT9=
EXTT10=
EXTT11=
EXTT12=
EXTT13=
EXTT14=
EXTT15=
EXTT16=
EXTT17=
EXTT18=
EXTT19=
PLAYORDER=
